<?xml version="1.0" encoding="UTF-8"?>
<svg width="141px" height="51px" viewBox="0 0 141 51" version="1.1" xmlns="http://www.w3.org/2000/svg" xmlns:xlink="http://www.w3.org/1999/xlink">
						<title>logo</title>
						<g id="Page-1" stroke="none" stroke-width="1" fill="none" fill-rule="evenodd">
							<g id="logo" transform="translate(0.3115, 0.5341)" fill-rule="nonzero">
								<path d="M31.4179,16.0833 C31.5109,20.2293 33.0449,23.7993 35.9849,26.7513 C38.9709,29.7343 42.5189,31.2673 46.6999,31.3563 L46.6999,16.0833 L31.4179,16.0833 Z" id="Fill-29" fill="#0D1D2F"></path>
								<path d="M47.5468,31.3548 C51.6628,31.2478 55.2228,29.7148 58.1498,26.7508 C61.1298,23.7998 62.6608,20.2298 62.7538,16.0828 L47.5468,16.0828 L47.5468,31.3548 Z" id="Fill-31" fill="#0D1D2F"></path>
								<path d="M46.6999,3.55271368e-15 C42.5189,0.088 38.9709,1.603 35.9849,4.588 C33.0429,7.559 31.5089,11.117 31.4179,15.29 L46.6999,15.29 L46.6999,3.55271368e-15 Z" id="Fill-33" fill="#0D1D2F"></path>
								<path d="M15.279,0.0001 C11.098,0.0891 7.548,1.6041 4.569,4.5881 C1.622,7.5591 0.091,11.1171 0,15.2891 L15.279,15.2891 L15.279,0.0001 Z" id="Fill-35" fill="#0D1D2F"></path>
								<path d="M16.1254,31.355 C20.2424,31.249 23.8014,29.717 26.7334,26.751 C29.7094,23.8 31.2404,20.23 31.3334,16.083 L16.1254,16.083 L16.1254,31.355 Z" id="Fill-37" fill="#0D1D2F"></path>
								<polygon id="Fill-39" fill="#B9243B" points="108.6175 7.9129 116.5285 7.9129 116.5285 0.0439 108.6175 0.0439"></polygon>
								<polygon id="Fill-41" fill="#B9243B" points="108.6175 31.4689 116.5285 31.4689 116.5285 23.6309 108.6175 23.6309"></polygon>
								<polygon id="Fill-42" fill="#B9243B" points="132.1425 31.4689 140.0325 31.4689 140.0325 23.6309 132.1425 23.6309"></polygon>
								<polygon id="Fill-43" fill="#B9243B" points="132.1425 7.9129 140.0325 7.9129 140.0325 0.0439 132.1425 0.0439"></polygon>
								<path d="M62.839,16.0833 C62.932,20.2293 64.467,23.7993 67.407,26.7513 C70.39,29.7313 73.969,31.2643 78.08,31.3563 L78.08,16.0833 L62.839,16.0833 Z" id="Fill-44" fill="#0D1D2F"></path>
								<path d="M94.1446,15.2896 C94.0586,11.1176 92.5926,7.5586 89.6116,4.5876 C86.6396,1.6206 83.0806,0.1056 78.9306,0.0016 L78.9306,15.2896 L94.1446,15.2896 Z" id="Fill-45" fill="#0D1D2F"></path>
								<path d="M78.0796,0.0003 C73.9696,0.0913 70.3896,1.6053 67.4076,4.5873 C64.4646,7.5593 62.9296,11.1173 62.8386,15.2893 L78.0796,15.2893 L78.0796,0.0003 Z" id="Fill-46" fill="#0D1D2F"></path>
								<path d="M78.9303,31.355 C83.0803,31.249 86.6393,29.717 89.6123,26.751 C92.5903,23.8 94.0553,20.23 94.1443,16.083 L78.9303,16.083 L78.9303,31.355 Z" id="Fill-47" fill="#0D1D2F"></path>
								<polygon id="Fill-48" fill="#0D1D2F" points="47.802 47.5983 45.982 47.5983 44.9 44.1783 44.878 44.1783 43.819 47.5983 41.999 47.5983 40.101 42.1043 42.054 42.1043 43.003 45.5793 43.036 45.5793 44.018 42.1043 45.838 42.1043 46.853 45.5793 46.875 45.5793 47.835 42.1043 49.711 42.1043"></polygon>
								<polygon id="Fill-49" fill="#0D1D2F" points="57.1909 47.5983 55.3699 47.5983 54.2889 44.1783 54.2669 44.1783 53.2079 47.5983 51.3869 47.5983 49.4899 42.1043 51.4419 42.1043 52.3909 45.5793 52.4249 45.5793 53.4059 42.1043 55.2269 42.1043 56.2409 45.5793 56.2639 45.5793 57.2229 42.1043 59.0989 42.1043"></polygon>
								<polygon id="Fill-50" fill="#0D1D2F" points="66.5797 47.5983 64.7587 47.5983 63.6777 44.1783 63.6557 44.1783 62.5967 47.5983 60.7767 47.5983 58.8787 42.1043 60.8317 42.1043 61.7807 45.5793 61.8137 45.5793 62.7957 42.1043 64.6157 42.1043 65.6307 45.5793 65.6527 45.5793 66.6127 42.1043 68.4887 42.1043"></polygon>
								<path d="M70.6393,46.6272 C70.6393,46.9362 70.5303,47.1942 70.3133,47.3992 C70.0963,47.6052 69.8373,47.7082 69.5363,47.7082 C69.3813,47.7082 69.2363,47.6812 69.1003,47.6262 C68.9643,47.5702 68.8443,47.4952 68.7413,47.3992 C68.6383,47.3042 68.5583,47.1922 68.4983,47.0632 C68.4403,46.9342 68.4103,46.7932 68.4103,46.6382 C68.4103,46.4912 68.4403,46.3512 68.4983,46.2192 C68.5583,46.0862 68.6383,45.9712 68.7413,45.8712 C68.8443,45.7722 68.9643,45.6932 69.1003,45.6342 C69.2363,45.5752 69.3813,45.5462 69.5363,45.5462 C69.8373,45.5462 70.0963,45.6492 70.3133,45.8552 C70.5303,46.0612 70.6393,46.3182 70.6393,46.6272" id="Fill-51" fill="#0D1D2F"></path>
								<path d="M74.8976,43.7257 C74.7506,43.5857 74.5776,43.4687 74.3796,43.3727 C74.1806,43.2777 73.9706,43.2297 73.7506,43.2297 C73.5816,43.2297 73.4246,43.2627 73.2816,43.3287 C73.1376,43.3947 73.0666,43.5087 73.0666,43.6707 C73.0666,43.8247 73.1456,43.9357 73.3036,44.0017 C73.4616,44.0677 73.7176,44.1417 74.0706,44.2227 C74.2766,44.2667 74.4846,44.3287 74.6936,44.4097 C74.9026,44.4907 75.0926,44.5977 75.2626,44.7297 C75.4316,44.8617 75.5666,45.0237 75.6706,45.2147 C75.7726,45.4067 75.8246,45.6347 75.8246,45.8997 C75.8246,46.2447 75.7546,46.5377 75.6146,46.7767 C75.4746,47.0157 75.2926,47.2087 75.0686,47.3557 C74.8446,47.5027 74.5926,47.6097 74.3126,47.6757 C74.0326,47.7417 73.7546,47.7747 73.4746,47.7747 C73.0256,47.7747 72.5866,47.7027 72.1556,47.5597 C71.7256,47.4167 71.3676,47.2047 71.0796,46.9257 L72.0956,45.8547 C72.2576,46.0317 72.4556,46.1787 72.6906,46.2967 C72.9266,46.4137 73.1766,46.4727 73.4416,46.4727 C73.5886,46.4727 73.7336,46.4377 73.8776,46.3677 C74.0206,46.2987 74.0926,46.1747 74.0926,45.9987 C74.0926,45.8297 74.0046,45.7047 73.8276,45.6237 C73.6506,45.5427 73.3756,45.4577 72.9996,45.3697 C72.8086,45.3257 72.6176,45.2667 72.4266,45.1927 C72.2346,45.1197 72.0636,45.0207 71.9136,44.8957 C71.7626,44.7697 71.6396,44.6157 71.5436,44.4317 C71.4476,44.2477 71.3996,44.0277 71.3996,43.7697 C71.3996,43.4387 71.4706,43.1577 71.6096,42.9257 C71.7496,42.6937 71.9296,42.5047 72.1506,42.3577 C72.3716,42.2107 72.6156,42.1017 72.8846,42.0317 C73.1526,41.9627 73.4196,41.9277 73.6846,41.9277 C74.0966,41.9277 74.4986,41.9917 74.8926,42.1207 C75.2866,42.2497 75.6186,42.4427 75.8906,42.6997 L74.8976,43.7257 Z" id="Fill-52" fill="#0D1D2F"></path>
								<path d="M80.7559,44.8179 C80.7559,44.6339 80.7249,44.4579 80.6619,44.2889 C80.5999,44.1199 80.5099,43.9699 80.3919,43.8419 C80.2739,43.7129 80.1349,43.6119 79.9729,43.5379 C79.8109,43.4649 79.6269,43.4279 79.4209,43.4279 C79.2149,43.4279 79.0339,43.4649 78.8759,43.5379 C78.7169,43.6119 78.5819,43.7109 78.4719,43.8359 C78.3619,43.9609 78.2779,44.1079 78.2179,44.2769 C78.1599,44.4469 78.1299,44.6269 78.1299,44.8179 C78.1299,45.0019 78.1599,45.1779 78.2179,45.3479 C78.2779,45.5169 78.3619,45.6659 78.4719,45.7949 C78.5819,45.9229 78.7169,46.0259 78.8759,46.1029 C79.0339,46.1809 79.2149,46.2189 79.4209,46.2189 C79.6269,46.2189 79.8129,46.1809 79.9779,46.1029 C80.1439,46.0259 80.2829,45.9249 80.3979,45.7999 C80.5119,45.6749 80.5999,45.5279 80.6619,45.3589 C80.7249,45.1899 80.7559,45.0089 80.7559,44.8179 L80.7559,44.8179 Z M82.4769,47.0799 C82.4769,47.6169 82.3999,48.0839 82.2459,48.4809 C82.0909,48.8779 81.8739,49.2069 81.5949,49.4679 C81.3149,49.7289 80.9749,49.9239 80.5739,50.0529 C80.1729,50.1819 79.7299,50.2459 79.2439,50.2459 C78.7599,50.2459 78.2609,50.1729 77.7499,50.0259 C77.2379,49.8779 76.7959,49.6649 76.4199,49.3859 L77.3249,48.0949 C77.5899,48.3299 77.8819,48.5049 78.2019,48.6189 C78.5219,48.7329 78.8369,48.7899 79.1459,48.7899 C79.6749,48.7899 80.0669,48.6499 80.3199,48.3709 C80.5739,48.0909 80.7009,47.7199 80.7009,47.2559 L80.7009,46.9249 L80.6679,46.9249 C80.4989,47.1459 80.2709,47.3229 79.9839,47.4549 C79.6969,47.5869 79.3699,47.6539 79.0019,47.6539 C78.5819,47.6539 78.2109,47.5779 77.8879,47.4269 C77.5639,47.2769 77.2899,47.0729 77.0659,46.8149 C76.8409,46.5579 76.6699,46.2579 76.5529,45.9159 C76.4349,45.5739 76.3759,45.2119 76.3759,44.8289 C76.3759,44.4469 76.4349,44.0829 76.5529,43.7369 C76.6699,43.3909 76.8409,43.0859 77.0659,42.8209 C77.2899,42.5559 77.5639,42.3449 77.8879,42.1869 C78.2109,42.0289 78.5789,41.9499 78.9909,41.9499 C79.3369,41.9499 79.6679,42.0199 79.9839,42.1589 C80.2999,42.2989 80.5529,42.5159 80.7449,42.8099 L80.7679,42.8099 L80.7679,42.1039 L82.4769,42.1039 L82.4769,47.0799 Z" id="Fill-53" fill="#0D1D2F"></path>
								<path d="M87.7725,44.8291 C87.7725,44.6521 87.7425,44.4801 87.6845,44.3101 C87.6255,44.1411 87.5405,43.9921 87.4305,43.8641 C87.3205,43.7351 87.1845,43.6301 87.0225,43.5491 C86.8605,43.4681 86.6725,43.4281 86.4595,43.4281 C86.2465,43.4281 86.0585,43.4681 85.8965,43.5491 C85.7355,43.6301 85.6005,43.7351 85.4945,43.8641 C85.3875,43.9921 85.3065,44.1411 85.2515,44.3101 C85.1965,44.4801 85.1685,44.6521 85.1685,44.8291 C85.1685,45.0051 85.1965,45.1781 85.2515,45.3471 C85.3065,45.5171 85.3895,45.6691 85.4995,45.8051 C85.6105,45.9421 85.7455,46.0501 85.9075,46.1311 C86.0695,46.2121 86.2565,46.2521 86.4705,46.2521 C86.6835,46.2521 86.8715,46.2121 87.0335,46.1311 C87.1945,46.0501 87.3305,45.9421 87.4415,45.8051 C87.5515,45.6691 87.6345,45.5171 87.6895,45.3471 C87.7445,45.1781 87.7725,45.0051 87.7725,44.8291 M89.5155,44.8291 C89.5155,45.2781 89.4345,45.6841 89.2725,46.0481 C89.1115,46.4121 88.8905,46.7211 88.6105,46.9751 C88.3315,47.2291 88.0075,47.4261 87.6405,47.5651 C87.2715,47.7051 86.8785,47.7751 86.4595,47.7751 C86.0475,47.7751 85.6555,47.7051 85.2845,47.5651 C84.9125,47.4261 84.5895,47.2291 84.3135,46.9751 C84.0375,46.7211 83.8185,46.4121 83.6575,46.0481 C83.4955,45.6841 83.4145,45.2781 83.4145,44.8291 C83.4145,44.3801 83.4955,43.9761 83.6575,43.6151 C83.8185,43.2551 84.0375,42.9501 84.3135,42.7001 C84.5895,42.4501 84.9125,42.2581 85.2845,42.1261 C85.6555,41.9931 86.0475,41.9271 86.4595,41.9271 C86.8785,41.9271 87.2715,41.9931 87.6405,42.1261 C88.0075,42.2581 88.3315,42.4501 88.6105,42.7001 C88.8905,42.9501 89.1115,43.2551 89.2725,43.6151 C89.4345,43.9761 89.5155,44.3801 89.5155,44.8291" id="Fill-54" fill="#0D1D2F"></path>
								<polygon id="Fill-55" fill="#0D1D2F" points="90.1335 45.4249 92.9355 45.4249 92.9355 43.9909 90.1335 43.9909"></polygon>
								<polygon id="Fill-56" fill="#0D1D2F" points="97.2167 47.5983 95.2637 47.5983 93.1007 42.1043 95.0987 42.1043 96.2567 45.6673 96.2897 45.6673 97.4487 42.1043 99.3797 42.1043"></polygon>
								<path d="M103.6377,44.2223 C103.6377,43.9353 103.5477,43.6893 103.3677,43.4833 C103.1867,43.2773 102.9167,43.1743 102.5567,43.1743 C102.3797,43.1743 102.2187,43.2013 102.0707,43.2573 C101.9237,43.3123 101.7957,43.3873 101.6857,43.4833 C101.5747,43.5783 101.4857,43.6913 101.4207,43.8193 C101.3537,43.9483 101.3177,44.0823 101.3097,44.2223 L103.6377,44.2223 Z M105.3037,44.9173 L105.3037,45.1383 C105.3037,45.2113 105.3007,45.2813 105.2927,45.3473 L101.3097,45.3473 C101.3247,45.5023 101.3707,45.6413 101.4477,45.7673 C101.5257,45.8923 101.6247,46.0003 101.7457,46.0923 C101.8677,46.1843 102.0027,46.2563 102.1537,46.3073 C102.3047,46.3593 102.4607,46.3843 102.6227,46.3843 C102.9097,46.3843 103.1527,46.3313 103.3517,46.2243 C103.5497,46.1183 103.7117,45.9803 103.8367,45.8113 L105.0947,46.6053 C104.8367,46.9803 104.4967,47.2693 104.0737,47.4713 C103.6507,47.6733 103.1597,47.7753 102.6007,47.7753 C102.1897,47.7753 101.7997,47.7103 101.4317,47.5813 C101.0637,47.4533 100.7417,47.2653 100.4667,47.0193 C100.1897,46.7723 99.9737,46.4693 99.8157,46.1093 C99.6567,45.7483 99.5777,45.3363 99.5777,44.8733 C99.5777,44.4243 99.6547,44.0183 99.8097,43.6543 C99.9637,43.2903 100.1737,42.9813 100.4387,42.7273 C100.7037,42.4733 101.0157,42.2773 101.3767,42.1373 C101.7367,41.9973 102.1257,41.9273 102.5457,41.9273 C102.9497,41.9273 103.3217,41.9953 103.6597,42.1313 C103.9987,42.2673 104.2887,42.4643 104.5317,42.7213 C104.7747,42.9793 104.9637,43.2913 105.0997,43.6593 C105.2357,44.0273 105.3037,44.4463 105.3037,44.9173 L105.3037,44.9173 Z" id="Fill-57" fill="#0D1D2F"></path>
								<path d="M109.7716,43.5933 C109.6906,43.5713 109.6116,43.5563 109.5346,43.5493 C109.4576,43.5423 109.3816,43.5383 109.3086,43.5383 C109.0656,43.5383 108.8616,43.5823 108.6966,43.6703 C108.5306,43.7583 108.3986,43.8643 108.2996,43.9893 C108.1996,44.1143 108.1286,44.2493 108.0836,44.3963 C108.0396,44.5433 108.0176,44.6713 108.0176,44.7813 L108.0176,47.5983 L106.2086,47.5983 L106.2086,42.1103 L107.9516,42.1103 L107.9516,42.9043 L107.9736,42.9043 C108.1136,42.6233 108.3116,42.3943 108.5696,42.2163 C108.8266,42.0383 109.1246,41.9493 109.4636,41.9493 C109.5366,41.9493 109.6076,41.9533 109.6776,41.9603 C109.7476,41.9673 109.8056,41.9793 109.8486,41.9933 L109.7716,43.5933 Z" id="Fill-58" fill="#0D1D2F"></path>
								<path d="M113.9427,44.2223 C113.9427,43.9353 113.8527,43.6893 113.6727,43.4833 C113.4917,43.2773 113.2217,43.1743 112.8617,43.1743 C112.6847,43.1743 112.5237,43.2013 112.3757,43.2573 C112.2287,43.3123 112.0997,43.3873 111.9897,43.4833 C111.8797,43.5783 111.7907,43.6913 111.7247,43.8193 C111.6587,43.9483 111.6217,44.0823 111.6147,44.2223 L113.9427,44.2223 Z M115.6087,44.9173 L115.6087,45.1383 C115.6087,45.2113 115.6047,45.2813 115.5967,45.3473 L111.6147,45.3473 C111.6287,45.5023 111.6747,45.6413 111.7527,45.7673 C111.8297,45.8923 111.9297,46.0003 112.0507,46.0923 C112.1717,46.1843 112.3077,46.2563 112.4587,46.3073 C112.6097,46.3593 112.7657,46.3843 112.9267,46.3843 C113.2147,46.3843 113.4567,46.3313 113.6557,46.2243 C113.8547,46.1183 114.0167,45.9803 114.1417,45.8113 L115.3987,46.6053 C115.1407,46.9803 114.8007,47.2693 114.3787,47.4713 C113.9557,47.6733 113.4647,47.7753 112.9057,47.7753 C112.4937,47.7753 112.1037,47.7103 111.7357,47.5813 C111.3677,47.4533 111.0457,47.2653 110.7707,47.0193 C110.4947,46.7723 110.2777,46.4693 110.1197,46.1093 C109.9617,45.7483 109.8827,45.3363 109.8827,44.8733 C109.8827,44.4243 109.9597,44.0183 110.1137,43.6543 C110.2687,43.2903 110.4777,42.9813 110.7427,42.7273 C111.0077,42.4733 111.3197,42.2773 111.6817,42.1373 C112.0417,41.9973 112.4307,41.9273 112.8507,41.9273 C113.2547,41.9273 113.6267,41.9953 113.9647,42.1313 C114.3027,42.2673 114.5927,42.4643 114.8367,42.7213 C115.0787,42.9793 115.2687,43.2913 115.4047,43.6593 C115.5407,44.0273 115.6087,44.4463 115.6087,44.9173 L115.6087,44.9173 Z" id="Fill-59" fill="#0D1D2F"></path>
								<path d="M116.5355,47.5979 L118.3455,47.5979 L118.3455,42.1039 L116.5355,42.1039 L116.5355,47.5979 Z M118.4775,40.3499 C118.4775,40.4899 118.4495,40.6199 118.3945,40.7409 C118.3395,40.8629 118.2655,40.9679 118.1745,41.0559 C118.0815,41.1439 117.9715,41.2139 117.8425,41.2649 C117.7145,41.3169 117.5805,41.3429 117.4405,41.3429 C117.1455,41.3429 116.8995,41.2449 116.7005,41.0499 C116.5025,40.8559 116.4025,40.6219 116.4025,40.3499 C116.4025,40.2169 116.4285,40.0899 116.4805,39.9689 C116.5315,39.8479 116.6055,39.7429 116.7005,39.6549 C116.7965,39.5669 116.9065,39.4949 117.0325,39.4399 C117.1565,39.3839 117.2935,39.3569 117.4405,39.3569 C117.5805,39.3569 117.7145,39.3829 117.8425,39.4339 C117.9715,39.4859 118.0815,39.5559 118.1745,39.6439 C118.2655,39.7319 118.3395,39.8369 118.3945,39.9579 C118.4495,40.0799 118.4775,40.2099 118.4775,40.3499 L118.4775,40.3499 Z" id="Fill-60" fill="#0D1D2F"></path>
								<path d="M123.1662,47.5983 L123.1662,44.5973 C123.1662,44.4433 123.1532,44.2963 123.1272,44.1563 C123.1012,44.0163 123.0592,43.8933 123.0002,43.7863 C122.9412,43.6803 122.8592,43.5953 122.7522,43.5333 C122.6452,43.4703 122.5112,43.4393 122.3492,43.4393 C122.1872,43.4393 122.0462,43.4703 121.9242,43.5333 C121.8032,43.5953 121.7022,43.6813 121.6212,43.7923 C121.5402,43.9023 121.4792,44.0293 121.4392,44.1723 C121.3992,44.3163 121.3782,44.4653 121.3782,44.6193 L121.3782,47.5983 L119.5582,47.5983 L119.5582,42.1043 L121.3122,42.1043 L121.3122,42.8653 L121.3342,42.8653 C121.4012,42.7473 121.4872,42.6313 121.5932,42.5173 C121.7002,42.4033 121.8252,42.3063 121.9692,42.2253 C122.1122,42.1443 122.2682,42.0783 122.4372,42.0273 C122.6072,41.9753 122.7872,41.9493 122.9782,41.9493 C123.3462,41.9493 123.6582,42.0163 123.9162,42.1483 C124.1732,42.2803 124.3812,42.4513 124.5392,42.6613 C124.6972,42.8703 124.8122,43.1113 124.8812,43.3833 C124.9512,43.6563 124.9862,43.9283 124.9862,44.2003 L124.9862,47.5983 L123.1662,47.5983 Z" id="Fill-61" fill="#0D1D2F"></path>
								<path d="M128.1968,46.6272 C128.1968,46.9362 128.0878,47.1942 127.8718,47.3992 C127.6538,47.6052 127.3948,47.7082 127.0938,47.7082 C126.9388,47.7082 126.7938,47.6812 126.6578,47.6262 C126.5218,47.5702 126.4018,47.4952 126.2988,47.3992 C126.1958,47.3042 126.1158,47.1922 126.0558,47.0632 C125.9978,46.9342 125.9688,46.7932 125.9688,46.6382 C125.9688,46.4912 125.9978,46.3512 126.0558,46.2192 C126.1158,46.0862 126.1958,45.9712 126.2988,45.8712 C126.4018,45.7722 126.5218,45.6932 126.6578,45.6342 C126.7938,45.5752 126.9388,45.5462 127.0938,45.5462 C127.3948,45.5462 127.6538,45.6492 127.8718,45.8552 C128.0878,46.0612 128.1968,46.3182 128.1968,46.6272" id="Fill-62" fill="#0D1D2F"></path>
								<path d="M133.0183,43.8801 C132.9143,43.7481 132.7753,43.6411 132.5983,43.5601 C132.4223,43.4791 132.2423,43.4391 132.0583,43.4391 C131.8663,43.4391 131.6943,43.4771 131.5393,43.5551 C131.3843,43.6321 131.2523,43.7351 131.1423,43.8641 C131.0323,43.9921 130.9453,44.1411 130.8833,44.3101 C130.8203,44.4801 130.7893,44.6601 130.7893,44.8511 C130.7893,45.0421 130.8193,45.2221 130.8773,45.3921 C130.9363,45.5611 131.0223,45.7101 131.1363,45.8381 C131.2513,45.9671 131.3873,46.0681 131.5453,46.1421 C131.7033,46.2151 131.8813,46.2521 132.0803,46.2521 C132.2643,46.2521 132.4463,46.2171 132.6263,46.1471 C132.8063,46.0771 132.9523,45.9761 133.0623,45.8441 L134.0663,47.0691 C133.8373,47.2891 133.5433,47.4621 133.1833,47.5871 C132.8233,47.7121 132.4403,47.7751 132.0363,47.7751 C131.6023,47.7751 131.1963,47.7091 130.8213,47.5761 C130.4443,47.4441 130.1183,47.2511 129.8403,46.9971 C129.5633,46.7431 129.3443,46.4361 129.1853,46.0761 C129.0263,45.7151 128.9473,45.3071 128.9473,44.8511 C128.9473,44.4021 129.0263,43.9981 129.1853,43.6371 C129.3443,43.2771 129.5633,42.9701 129.8403,42.7161 C130.1183,42.4621 130.4443,42.2681 130.8213,42.1311 C131.1963,41.9951 131.5983,41.9271 132.0243,41.9271 C132.2233,41.9271 132.4203,41.9461 132.6153,41.9821 C132.8103,42.0191 132.9983,42.0691 133.1783,42.1311 C133.3583,42.1941 133.5233,42.2711 133.6743,42.3631 C133.8243,42.4551 133.9553,42.5561 134.0663,42.6661 L133.0183,43.8801 Z" id="Fill-63" fill="#0D1D2F"></path>
								<path d="M138.1697,47.5983 L138.1697,44.6193 C138.1697,44.4653 138.1597,44.3183 138.1377,44.1783 C138.1147,44.0383 138.0727,43.9153 138.0097,43.8083 C137.9477,43.7023 137.8647,43.6173 137.7617,43.5543 C137.6587,43.4923 137.5267,43.4613 137.3647,43.4613 C137.0487,43.4613 136.8057,43.5733 136.6367,43.7973 C136.4677,44.0223 136.3827,44.2993 136.3827,44.6303 L136.3827,47.5983 L134.5737,47.5983 L134.5737,39.2573 L136.3827,39.2573 L136.3827,42.7993 L136.4047,42.7993 C136.5297,42.5783 136.7287,42.3813 137.0007,42.2093 C137.2727,42.0363 137.5997,41.9493 137.9827,41.9493 C138.3577,41.9493 138.6727,42.0163 138.9257,42.1483 C139.1797,42.2803 139.3857,42.4513 139.5437,42.6613 C139.7017,42.8703 139.8157,43.1113 139.8857,43.3833 C139.9557,43.6563 139.9907,43.9283 139.9907,44.2003 L139.9907,47.5983 L138.1697,47.5983 Z" id="Fill-64" fill="#0D1D2F"></path>
							</g>
						</g>
					</svg>