<?xml version="1.0" encoding="UTF-8"?><svg id="a" xmlns="http://www.w3.org/2000/svg" width="132.29mm" height="38.81mm" viewBox="0 0 375 110"><defs><style>.b{fill:#fff;}.c{isolation:isolate;}</style></defs><rect width="375" height="110"/><g class="c"><g class="c"><path class="b" d="m48.54,65.19l-4.37,9.81h-.71l-4.37-9.81h.78l3.96,8.88,3.96-8.88h.74Z"/><path class="b" d="m49.58,65.35c0-.31.25-.57.57-.57s.57.25.57.56-.25.57-.57.57-.57-.25-.57-.56Zm.22,2.34h.7v7.31h-.7v-7.31Z"/><path class="b" d="m58.74,70.36v4.64h-.67v-1.3c-.46.84-1.36,1.36-2.63,1.36-1.64,0-2.63-.84-2.63-2.09,0-1.11.7-2.04,2.73-2.04h2.51v-.59c0-1.36-.74-2.09-2.17-2.09-1.01,0-1.92.38-2.52.92l-.35-.5c.73-.64,1.79-1.04,2.93-1.04,1.81,0,2.82.92,2.82,2.73Zm-.7,2.48v-1.37h-2.49c-1.51,0-2.04.63-2.04,1.47,0,.95.74,1.54,2.03,1.54s2.09-.59,2.51-1.64Z"/><path class="b" d="m68.36,70.17l-2.2,2.26v2.58h-.71v-9.81h.71v6.3l6.12-6.3h.87l-4.31,4.46,4.61,5.35h-.87l-4.22-4.83Z"/><path class="b" d="m73.93,71.34c0-2.17,1.55-3.71,3.66-3.71s3.66,1.54,3.66,3.71-1.56,3.71-3.66,3.71-3.66-1.54-3.66-3.71Zm6.6,0c0-1.83-1.26-3.08-2.94-3.08s-2.94,1.25-2.94,3.08,1.26,3.08,2.94,3.08,2.94-1.25,2.94-3.08Z"/><path class="b" d="m82.33,74.12l.32-.56c.56.48,1.55.88,2.63.88,1.54,0,2.16-.55,2.16-1.37,0-2.13-4.85-.56-4.85-3.43,0-1.11.92-2,2.77-2,.92,0,1.93.28,2.51.71l-.32.56c-.62-.45-1.41-.66-2.2-.66-1.43,0-2.06.59-2.06,1.37,0,2.2,4.85.64,4.85,3.43,0,1.19-1.02,2-2.89,2-1.2,0-2.35-.41-2.93-.94Z"/><path class="b" d="m89.3,71.34c0-2.18,1.55-3.71,3.7-3.71,1.16,0,2.17.45,2.77,1.34l-.52.38c-.53-.74-1.34-1.09-2.26-1.09-1.72,0-2.98,1.23-2.98,3.08s1.26,3.08,2.98,3.08c.91,0,1.72-.35,2.26-1.09l.52.38c-.6.88-1.61,1.34-2.77,1.34-2.14,0-3.7-1.54-3.7-3.71Z"/><path class="b" d="m97.65,65.35c0-.31.25-.57.57-.57s.57.25.57.56-.25.57-.57.57-.57-.25-.57-.56Zm.22,2.34h.7v7.31h-.7v-7.31Z"/><path class="b" d="m107.93,67.69v7.31h-.67v-1.57c-.48,1.02-1.47,1.62-2.76,1.62-1.86,0-3.05-1.05-3.05-3.1v-4.27h.7v4.22c0,1.65.88,2.52,2.41,2.52,1.65,0,2.68-1.11,2.68-2.84v-3.89h.7Z"/><path class="b" d="m109.81,74.12l.32-.56c.56.48,1.55.88,2.63.88,1.54,0,2.16-.55,2.16-1.37,0-2.13-4.85-.56-4.85-3.43,0-1.11.92-2,2.77-2,.92,0,1.93.28,2.51.71l-.32.56c-.62-.45-1.41-.66-2.2-.66-1.43,0-2.06.59-2.06,1.37,0,2.2,4.85.64,4.85,3.43,0,1.19-1.02,2-2.89,2-1.21,0-2.35-.41-2.93-.94Z"/><path class="b" d="m122.53,74.4v.6h-5.81v-.48l4.82-6.23h-4.75v-.6h5.66v.48l-4.83,6.23h4.92Z"/><path class="b" d="m127.23,71.09l-1.91,1.74v2.17h-.7v-10.39h.7v7.35l4.68-4.27h.9l-3.15,2.96,3.46,4.36h-.87l-3.11-3.91Z"/><path class="b" d="m131.76,71.34c0-2.17,1.55-3.71,3.66-3.71s3.66,1.54,3.66,3.71-1.56,3.71-3.66,3.71-3.66-1.54-3.66-3.71Zm6.6,0c0-1.83-1.26-3.08-2.94-3.08s-2.94,1.25-2.94,3.08,1.26,3.08,2.94,3.08,2.94-1.25,2.94-3.08Z"/><path class="b" d="m152.31,72.28h-2.06v2.72h-.7v-2.72h-5.59v-.52l5.32-6.57h.8l-5.22,6.46h4.71v-2.4h.69v2.4h2.06v.63Z"/><path class="b" d="m160.29,72.24h-5.69l-1.25,2.76h-.77l4.51-9.81h.71l4.51,9.81h-.77l-1.26-2.76Zm-.27-.6l-2.58-5.66-2.56,5.66h5.14Z"/><path class="b" d="m166.85,70.92h3.6v.63h-3.6v-.63Z"/><path class="b" d="m182.88,72.11c0,1.79-1.39,2.96-3.26,2.96-2.58,0-3.94-1.85-3.94-4.92,0-3.32,1.76-5.03,4.36-5.03.84,0,1.62.14,2.23.5l-.29.57c-.5-.32-1.19-.45-1.93-.45-2.2,0-3.64,1.44-3.64,4.29,0,.29.01.73.08,1.18.41-1.29,1.64-2.02,3.12-2.02,1.96,0,3.28,1.15,3.28,2.91Zm-.71.01c0-1.4-1.01-2.31-2.66-2.31s-2.72,1.02-2.72,2.34c0,1.15.97,2.3,2.8,2.3,1.53,0,2.58-.91,2.58-2.33Z"/><path class="b" d="m191,70.04c0,3.32-1.77,5.03-4.36,5.03-.84,0-1.62-.14-2.23-.5l.29-.57c.5.32,1.19.45,1.93.45,2.2,0,3.64-1.44,3.64-4.29,0-.29-.01-.73-.08-1.18-.41,1.29-1.64,2.02-3.12,2.02-1.96,0-3.28-1.15-3.28-2.91s1.39-2.96,3.26-2.96c2.58,0,3.94,1.85,3.94,4.92Zm-1.11-2c0-1.15-.97-2.3-2.8-2.3-1.53,0-2.58.91-2.58,2.33s1.01,2.31,2.66,2.31,2.72-1.02,2.72-2.34Z"/><path class="b" d="m200.72,72.28h-2.06v2.72h-.7v-2.72h-5.59v-.52l5.32-6.57h.8l-5.22,6.46h4.71v-2.4h.69v2.4h2.06v.63Z"/><path class="b" d="m207.76,72.24c0,1.62-1.18,2.83-3.43,2.83-1.44,0-2.77-.53-3.46-1.32l.37-.55c.6.69,1.75,1.21,3.1,1.21,1.76,0,2.7-.84,2.7-2.17s-.9-2.17-2.86-2.17h-.62v-.52l2.9-3.71h-5.22v-.64h6.15v.5l-2.94,3.77c2.23.06,3.32,1.18,3.32,2.77Z"/><path class="b" d="m221.63,65.19l-4.37,9.81h-.71l-4.37-9.81h.78l3.96,8.88,3.96-8.88h.74Z"/><path class="b" d="m228.6,71.51h-6.29c.07,1.74,1.34,2.91,3.1,2.91.92,0,1.78-.34,2.34-1.02l.41.46c-.64.78-1.65,1.19-2.76,1.19-2.21,0-3.77-1.54-3.77-3.71s1.5-3.71,3.5-3.71,3.49,1.51,3.49,3.68c0,.06-.01.13-.01.2Zm-6.28-.55h5.6c-.1-1.58-1.25-2.72-2.8-2.72s-2.69,1.12-2.8,2.72Z"/><path class="b" d="m235.66,74.4v.6h-5.81v-.48l4.82-6.23h-4.75v-.6h5.66v.48l-4.83,6.23h4.92Z"/><path class="b" d="m237.53,65.35c0-.31.25-.57.57-.57s.57.25.57.56-.25.57-.57.57-.57-.25-.57-.56Zm.22,2.34h.7v7.31h-.7v-7.31Z"/><path class="b" d="m246.69,70.36v4.64h-.67v-1.3c-.46.84-1.36,1.36-2.63,1.36-1.64,0-2.63-.84-2.63-2.09,0-1.11.7-2.04,2.73-2.04h2.51v-.59c0-1.36-.74-2.09-2.17-2.09-1.01,0-1.92.38-2.52.92l-.35-.5c.73-.64,1.79-1.04,2.93-1.04,1.81,0,2.82.92,2.82,2.73Zm-.7,2.48v-1.37h-2.49c-1.51,0-2.04.63-2.04,1.47,0,.95.74,1.54,2.03,1.54s2.09-.59,2.51-1.64Z"/></g></g><g class="c"><g class="c"><path class="b" d="m57.57,43.53c0,4.97-3.65,9.85-9.87,9.85-5.47,0-9.82-4.27-9.82-9.7s4.52-9.52,9.9-9.52c4.17,0,8.2,2.82,9.25,6.55h-5.3c-.87-1.52-2.3-2.4-4.07-2.4-2.97,0-5.05,2.4-5.05,5.37s1.95,5.55,5.07,5.55c2.2,0,3.85-1.07,4.42-2.97h-5.52v-3.77h11v1.05Z"/><path class="b" d="m70.27,53v-1.5h-.05c-.6,1.22-2.25,1.97-4.07,1.97-4.1,0-6.95-3.22-6.95-7.42s2.97-7.4,6.95-7.4c1.7,0,3.27.67,4.07,1.95h.05v-1.48h4.15v13.87h-4.15Zm0-6.95c0-1.95-1.57-3.52-3.52-3.52s-3.4,1.58-3.4,3.57,1.52,3.5,3.45,3.5,3.47-1.55,3.47-3.55Z"/><path class="b" d="m77.42,53v-13.87h3.9v1.48h.05c.72-1.48,1.87-1.95,3.47-1.95v4.17c-2.47.03-3.27.95-3.27,2.52v7.65h-4.15Z"/><path class="b" d="m96.75,53v-1.5h-.05c-.6,1.22-2.25,1.97-4.07,1.97-4.1,0-6.95-3.22-6.95-7.42s2.97-7.4,6.95-7.4c1.7,0,3.27.67,4.07,1.95h.05v-1.48h4.15v13.87h-4.15Zm0-6.95c0-1.95-1.57-3.52-3.52-3.52s-3.4,1.58-3.4,3.57,1.52,3.5,3.45,3.5,3.47-1.55,3.47-3.55Z"/><path class="b" d="m114.12,51.38c-.62,1.33-2.17,2.08-3.87,2.08-4.05,0-6.97-3.12-6.97-7.3s2.97-7.47,6.97-7.47c1.8,0,3.17.67,3.85,1.75h.05v-1.3h4.15v12.4c0,1.88-.25,3.3-.75,4.25-1,1.92-3.72,3.4-7.2,3.4-3.92,0-6.47-2.22-6.82-4.87h4.8c.48,1.02,1.4,1.38,2.42,1.38,2.1,0,3.37-1.38,3.37-3.9v-.4Zm.02-5.25c0-2.02-1.37-3.57-3.4-3.57-1.85,0-3.32,1.55-3.32,3.45s1.32,3.57,3.32,3.57,3.4-1.45,3.4-3.45Z"/><path class="b" d="m124.6,47.33c.23,1.58,1.55,2.62,3.25,2.62,1.12,0,1.85-.43,2.52-1.3h4.25c-1.32,3.02-3.85,4.8-6.77,4.8-4,0-7.35-3.22-7.35-7.35s3.2-7.45,7.27-7.45,7.32,3.27,7.32,7.57c0,.4-.02.72-.1,1.1h-10.4Zm6.35-2.8c-.32-1.42-1.57-2.38-3.17-2.38-1.5,0-2.8.9-3.12,2.38h6.3Z"/><path class="b" d="m158.05,53l-2.77-11.97h-.05l-2.77,11.97h-4.27l-4.77-18.5h4.8l2.47,12.02h.05l2.72-12.02h3.62l2.67,12.07h.05l2.52-12.07h4.77l-4.9,18.5h-4.15Z"/><path class="b" d="m171.22,47.33c.23,1.58,1.55,2.62,3.25,2.62,1.12,0,1.85-.43,2.52-1.3h4.25c-1.32,3.02-3.85,4.8-6.77,4.8-4,0-7.35-3.22-7.35-7.35s3.2-7.45,7.27-7.45,7.32,3.27,7.32,7.57c0,.4-.02.72-.1,1.1h-10.4Zm6.35-2.8c-.32-1.42-1.57-2.38-3.17-2.38-1.5,0-2.8.9-3.12,2.38h6.3Z"/><path class="b" d="m184.02,53v-18.5h4.15v5.72c1.1-1.17,2.5-1.58,3.95-1.58,3.6,0,6.9,2.7,6.9,7.32,0,4.27-2.72,7.5-7,7.5-1.67,0-3.35-.77-3.97-1.95h-.05v1.47h-3.97Zm10.85-6.95c0-1.85-1.42-3.52-3.42-3.52s-3.42,1.58-3.42,3.5c0,2.05,1.45,3.57,3.37,3.57s3.47-1.55,3.47-3.55Z"/><path class="b" d="m204.7,47.33c.22,1.58,1.55,2.62,3.25,2.62,1.12,0,1.85-.43,2.52-1.3h4.25c-1.33,3.02-3.85,4.8-6.77,4.8-4,0-7.35-3.22-7.35-7.35s3.2-7.45,7.27-7.45,7.32,3.27,7.32,7.57c0,.4-.03.72-.1,1.1h-10.4Zm6.35-2.8c-.33-1.42-1.58-2.38-3.17-2.38-1.5,0-2.8.9-3.12,2.38h6.3Z"/><path class="b" d="m217.47,53v-13.87h3.9v1.48h.05c.72-1.48,1.88-1.95,3.47-1.95v4.17c-2.47.03-3.27.95-3.27,2.52v7.65h-4.15Z"/><path class="b" d="m249.64,53l.15-13.85-.05-.05-3.95,13.9h-3.12l-4-14.02.15,14.02h-4.35v-18.5h6.07l3.67,12.17h.05l3.62-12.17h6.1v18.5h-4.35Z"/><path class="b" d="m264,53.42c-4.22,0-7.47-3.12-7.47-7.37s3.32-7.37,7.47-7.37,7.47,3.12,7.47,7.32-3.3,7.42-7.47,7.42Zm3.32-7.37c0-1.85-1.4-3.5-3.35-3.5-1.82,0-3.3,1.6-3.3,3.5s1.45,3.5,3.32,3.5,3.32-1.65,3.32-3.5Z"/><path class="b" d="m282.52,53v-7.7c0-1.87-.65-2.75-2.17-2.75-1.67,0-2.38.92-2.38,2.8v7.65h-4.15v-13.87h3.87v1.48h.05c.88-1.42,2.1-1.95,3.77-1.95,2.5,0,5.15,1.4,5.15,5.5v8.85h-4.15Z"/><path class="b" d="m300.04,53v-1.5h-.05c-.6,1.22-2.25,1.97-4.07,1.97-4.1,0-6.95-3.22-6.95-7.42s2.97-7.4,6.95-7.4c1.7,0,3.27.67,4.07,1.95h.05v-1.48h4.15v13.87h-4.15Zm0-6.95c0-1.95-1.57-3.52-3.52-3.52s-3.4,1.58-3.4,3.57,1.52,3.5,3.45,3.5,3.47-1.55,3.47-3.55Z"/><path class="b" d="m317.02,44.48c-.6-1.3-1.67-1.95-3.1-1.95-1.9,0-3.2,1.58-3.2,3.52s1.38,3.52,3.3,3.52c1.4,0,2.38-.65,3-1.85h4.22c-.83,3.47-3.8,5.72-7.35,5.72-4.1,0-7.35-3.32-7.35-7.42s3.27-7.37,7.27-7.37c3.65,0,6.62,2.3,7.4,5.82h-4.2Z"/><path class="b" d="m330.34,53.42c-4.22,0-7.47-3.12-7.47-7.37s3.32-7.37,7.47-7.37,7.47,3.12,7.47,7.32-3.3,7.42-7.47,7.42Zm3.32-7.37c0-1.85-1.4-3.5-3.35-3.5-1.82,0-3.3,1.6-3.3,3.5s1.45,3.5,3.32,3.5,3.32-1.65,3.32-3.5Z"/></g></g></svg>