<svg xmlns="http://www.w3.org/2000/svg" xmlns:xlink="http://www.w3.org/1999/xlink" width="129" height="155" viewBox="0 0 129 155">
  <defs>
    <clipPath id="clip-path">
      <path id="Tracciato_5" data-name="Tracciato 5" d="M0,20.077H90V-60.039H0Z" transform="translate(0 60.039)" fill="#fff"/>
    </clipPath>
  </defs>
  <g id="PM-Solving-MainLogo" transform="translate(-40)">
    <rect id="Rettangolo_3" data-name="Rettangolo 3" width="129" height="155" transform="translate(40)"/>
    <g id="Raggruppa_14" data-name="Raggruppa 14" transform="translate(60 117.039)">
      <g id="Raggruppa_3" data-name="Raggruppa 3" transform="translate(0 -60.039)" clip-path="url(#clip-path)">
        <g id="Raggruppa_1" data-name="Raggruppa 1" transform="translate(0 68.355)">
          <path id="Tracciato_3" data-name="Tracciato 3" d="M1.491.181v.977A5.3,5.3,0,0,0-1.078.28,2.483,2.483,0,0,0-2.806.907,2.017,2.017,0,0,0-3.5,2.463a1.918,1.918,0,0,0,.411,1.2A3.968,3.968,0,0,0-1.374,4.687a16.2,16.2,0,0,1,1.9.821,2.9,2.9,0,0,1,1.018.951,2.853,2.853,0,0,1,.419,1.617A2.946,2.946,0,0,1,1,10.309a3.323,3.323,0,0,1-2.365.911,5.322,5.322,0,0,1-2.937-1V9.176A5.183,5.183,0,0,0-1.414,10.4,2.413,2.413,0,0,0,.3,9.739a2.138,2.138,0,0,0,.7-1.621A2.157,2.157,0,0,0,.572,6.8,3.968,3.968,0,0,0-1.192,5.7a17.468,17.468,0,0,1-1.9-.822,2.807,2.807,0,0,1-.969-.89,2.571,2.571,0,0,1-.4-1.489A2.819,2.819,0,0,1-3.492.349,3.324,3.324,0,0,1-1.16-.541,5.446,5.446,0,0,1,1.491.181" transform="translate(4.459 0.541)" fill="#fff"/>
        </g>
        <g id="Raggruppa_2" data-name="Raggruppa 2" transform="translate(12.122 68.354)">
          <path id="Tracciato_4" data-name="Tracciato 4" d="M1.518,0A5.968,5.968,0,0,1,5.831,1.711,5.587,5.587,0,0,1,7.6,5.885a5.578,5.578,0,0,1-1.769,4.166,5.968,5.968,0,0,1-4.313,1.711,5.933,5.933,0,0,1-4.3-1.711,5.589,5.589,0,0,1-1.76-4.166,5.6,5.6,0,0,1,1.76-4.174A5.933,5.933,0,0,1,1.518,0m.033,10.941A4.929,4.929,0,0,0,5.166,9.476,4.869,4.869,0,0,0,6.639,5.885a4.879,4.879,0,0,0-1.473-3.6A4.929,4.929,0,0,0,1.551.821a4.993,4.993,0,0,0-3.64,1.465,4.848,4.848,0,0,0-1.491,3.6A4.839,4.839,0,0,0-2.089,9.476a4.993,4.993,0,0,0,3.64,1.465" transform="translate(4.539)" fill="#fff"/>
        </g>
      </g>
      <g id="Raggruppa_4" data-name="Raggruppa 4" transform="translate(30.588 8.463)">
        <path id="Tracciato_6" data-name="Tracciato 6" d="M0,0V11.467H6.559v-.738H.886V0Z" fill="#fff"/>
      </g>
      <g id="Raggruppa_5" data-name="Raggruppa 5" transform="translate(40.002 8.463)">
        <path id="Tracciato_7" data-name="Tracciato 7" d="M2.254,0-1.78,9.7-5.843,0h-.9l4.823,11.583h.263L3.15,0Z" transform="translate(6.741)" fill="#fff"/>
      </g>
      <path id="Tracciato_8" data-name="Tracciato 8" d="M41.521,2.763h.886V-8.7h-.886Z" transform="translate(13.885 17.166)" fill="#fff"/>
      <g id="Raggruppa_6" data-name="Raggruppa 6" transform="translate(63.056 8.463)">
        <path id="Tracciato_9" data-name="Tracciato 9" d="M2.367,0V10.021L-6.329,0h-.75V11.467h.886V1.445L2.525,11.467h.729V0Z" transform="translate(7.079)" fill="#fff"/>
      </g>
      <g id="Raggruppa_10" data-name="Raggruppa 10" transform="translate(0 -60.039)" clip-path="url(#clip-path)">
        <g id="Raggruppa_7" data-name="Raggruppa 7" transform="translate(79.691 68.354)">
          <path id="Tracciato_10" data-name="Tracciato 10" d="M2.528.245v1A8.164,8.164,0,0,0-1.536.089,4.909,4.909,0,0,0-5.154,1.534,4.907,4.907,0,0,0-6.6,5.153,4.926,4.926,0,0,0-5.17,8.769a5.222,5.222,0,0,0,3.882,1.44A6.765,6.765,0,0,0,1.855,9.5V6.408H-.567V5.67H2.749v4.392a9.385,9.385,0,0,1-4.071.967A6.223,6.223,0,0,1-5.775,9.339,5.571,5.571,0,0,1-7.559,5.121,5.533,5.533,0,0,1-5.807.939,6.124,6.124,0,0,1-1.4-.732,9.489,9.489,0,0,1,2.528.245" transform="translate(7.559 0.732)" fill="#fff"/>
        </g>
        <g id="Raggruppa_8" data-name="Raggruppa 8" transform="translate(30.023 0)">
          <path id="Tracciato_11" data-name="Tracciato 11" d="M13.335,14.545c-1.1-.958-1.735-2.977-1.735-6.382V-33.373c0-3.313.633-5.4,1.735-6.416s2.387-1.293,6.2-1.536l.016-2.171H2.307L-24.964,12.235-34.836-7.909a36.084,36.084,0,0,1-5.04.778l12.67,25.463h4.267L2.282-30.659,2.267,8.6c0,5.89-1.835,7.466-7.869,7.466v2.263H19.546l-.024-2.287c-3.207-.072-5.085-.543-6.188-1.5" transform="translate(39.876 43.496)" fill="#fff"/>
        </g>
        <g id="Raggruppa_9" data-name="Raggruppa 9" transform="translate(0.127 0)">
          <path id="Tracciato_12" data-name="Tracciato 12" d="M6.175,8.635c9.365,0,22.97-2.018,22.969-17.712S14.084-25.822,6.175-25.822h-24.64v2.138c3.345.274,5.512.524,6.5,1.557s1.484,3.18,1.484,6.434V24.781c0,3.846-.6,6.305-1.485,7.379s-2.941,1.294-6.5,1.627v2.219H7.68V33.787c-3.742-.272-5.426-.376-6.505-1.285S-.607,28.82-.607,25.311V8.659c.761,0,5.778-.024,6.781-.024M5.5-21.715c3.4,0,13.183-.487,13.183,12.866S8.394,4.383,4.1,4.383s-4.71,0-4.71,0V-13.731L.249-11.92,7.306,2.407A13.38,13.38,0,0,0,12.1,1.031L1.241-20.894c.107-.052.2-.1.276-.131a10.837,10.837,0,0,1,3.981-.69" transform="translate(18.465 25.822)" fill="#fff"/>
        </g>
      </g>
    </g>
  </g>
</svg>
