<svg xmlns="http://www.w3.org/2000/svg" viewBox="0 0 187.5 133">
<svg x="54.75" y="0" width="78" height="89.4" viewBox="0 0 171 196">
<path d="M168.273 141.734C161.938 127.714 151.443 115.81 138.221 107.976C128.553 102.23 119.656 98.9587 111.034 97.9966C110.952 97.9966 110.869 97.9966 110.814 97.9691C110.897 97.9691 110.952 97.9691 111.034 97.9416C119.656 96.9794 128.553 93.7081 138.221 87.9625C151.471 80.1003 161.993 68.1419 168.328 54.0668L168.273 141.734ZM90.5132 99.3436C96.821 99.4535 103.57 99.8659 110.704 100.691C118.94 101.598 127.479 104.759 136.817 110.312C149.625 117.927 159.817 129.501 165.904 143.136L90.5132 99.3436ZM121.777 136.511C112.329 131.15 105.332 125.295 100.429 118.587C96.16 112.759 92.4138 107.096 89.191 101.68L164.582 145.445C149.79 146.957 134.751 143.878 121.777 136.511ZM89.1359 191.959C98.0606 179.423 103.101 164.304 103.239 148.854C103.349 137.555 101.724 128.181 98.2258 120.209C98.1983 120.154 98.1707 120.099 98.1432 120.016C98.1983 120.071 98.2258 120.126 98.2534 120.181C103.404 127.219 110.649 133.322 120.427 138.875C131.666 145.253 144.447 148.579 157.283 148.579C159.679 148.579 162.103 148.414 164.499 148.194L89.1359 191.959ZM86.8222 103.055C89.9072 108.608 92.9096 114.683 95.7743 121.281C99.1073 128.896 100.677 137.913 100.567 148.826C100.429 163.781 95.5264 178.434 86.8497 190.529V103.055H86.8222ZM86.8222 5.40874C95.5264 17.5045 100.402 32.1569 100.54 47.1118C100.65 58.0255 99.0797 67.0148 95.7468 74.6572C92.8821 81.2549 89.8797 87.3303 86.7946 92.8833V5.40874H86.8222ZM164.389 47.7715C149.184 46.3145 133.731 49.5034 120.427 57.0633C110.649 62.6164 103.377 68.7192 98.2534 75.7568C98.2258 75.7843 98.1983 75.8393 98.1707 75.8668C98.1983 75.8118 98.1983 75.7843 98.2258 75.7293C101.697 67.7571 103.349 58.3828 103.239 47.0843C103.074 31.6346 98.0606 16.5149 89.1359 4.00673L164.389 47.7715ZM89.191 94.2579C92.4414 88.8148 96.1875 83.1517 100.429 77.3512C105.332 70.6436 112.329 64.7881 121.777 59.4275C134.723 52.0875 149.79 49.0086 164.582 50.5206L89.191 94.2579ZM165.904 52.8573C159.817 66.4925 149.653 78.0385 136.817 85.6534C127.479 91.2064 118.94 94.3403 110.704 95.275C103.597 96.0722 96.8486 96.5121 90.5132 96.5945L165.904 52.8573ZM84.1227 92.8833C81.0377 87.3303 78.0353 81.2274 75.1706 74.6572C71.8376 67.0423 70.2951 58.0255 70.4053 47.1118C70.543 32.1569 75.446 17.532 84.1227 5.40874V92.8833ZM84.1227 190.557C75.4185 178.434 70.543 163.809 70.4053 148.854C70.2951 137.94 71.8652 128.951 75.1706 121.308C78.0353 114.711 81.0377 108.608 84.1227 103.055V190.557ZM6.44555 148.167C8.84198 148.387 11.2384 148.551 13.6624 148.551C26.4984 148.551 39.2793 145.225 50.5177 138.847C60.2962 133.294 67.5681 127.191 72.6915 120.154C72.7466 120.099 72.7742 120.044 72.8293 119.989C72.8017 120.044 72.7742 120.126 72.7466 120.181C69.2759 128.154 67.6232 137.528 67.7334 148.826C67.8987 164.221 72.8568 179.286 81.7539 191.794L6.44555 148.167ZM81.7539 101.68C78.5311 107.096 74.785 112.759 70.5155 118.587C65.6124 125.295 58.616 131.15 49.168 136.511C36.1943 143.878 21.1546 146.957 6.36292 145.418L81.7539 101.68ZM34.1008 110.285C43.4386 104.732 51.9776 101.598 60.2136 100.663C67.3478 99.8659 74.0963 99.4261 80.4042 99.3161L5.01321 143.108C11.1007 129.473 21.2924 117.9 34.1008 110.285ZM2.69942 141.734L2.72697 54.1768C9.06234 68.1969 19.557 80.1003 32.7787 87.9625C42.447 93.7081 51.3441 96.9794 59.9657 97.9416C60.0483 97.9416 60.1034 97.9691 60.1861 97.9691C60.1034 97.9691 60.0208 97.9691 59.9657 97.9966C51.3441 98.9587 42.447 102.23 32.7787 107.976C19.5295 115.81 9.00725 127.714 2.69942 141.734ZM80.4317 96.5945C74.1239 96.4846 67.3753 96.0722 60.2411 95.275C52.0052 94.3678 43.4662 91.2064 34.1284 85.6534C21.3199 78.0385 11.1282 66.465 5.04076 52.8573L80.4317 96.5945ZM49.1956 59.4275C58.6435 64.7881 65.64 70.6436 70.543 77.3512C74.785 83.1517 78.5311 88.8148 81.7814 94.2579L6.39047 50.5206C21.1546 49.0086 36.2218 52.0875 49.1956 59.4275ZM81.7263 4.14418C72.8568 16.6523 67.8711 31.7171 67.7059 47.0843C67.5957 58.3828 69.2208 67.7571 72.7191 75.7293C72.7466 75.7843 72.7466 75.8118 72.7742 75.8668C72.7466 75.8393 72.7191 75.7843 72.6915 75.7568C67.5406 68.7467 60.2962 62.6164 50.5177 57.0633C37.1583 49.5034 21.6504 46.287 6.44555 47.7715L81.7263 4.14418ZM167.199 46.287L89.3012 1.01027C86.9874 -0.336758 84.0952 -0.336758 81.7539 1.01027L3.77368 46.2046C1.45989 47.5516 0 50.0532 0 52.7748V143.191C0 145.885 1.43234 148.414 3.77368 149.761L81.7814 194.983C82.9383 195.643 84.2605 196 85.5551 196C86.8497 196 88.1719 195.67 89.3288 194.983L167.199 149.789C169.513 148.442 170.972 145.94 170.972 143.218L171 52.8847C170.972 50.1632 169.54 47.6341 167.199 46.287Z" fill="#54585A"/>
</svg>
<svg x="0" y="101" width="187.5" height="30.74" viewBox="0 0 187.5 30.74"><defs><style>.cls-1{fill:#54585a;}</style></defs><g id="Layer_2" data-name="Layer 2"><g id="Layer_1-2" data-name="Layer 1"><path class="cls-1" d="M2.24.49H0V30.21H2.24Z"/><path class="cls-1" d="M113.89,28.19H94.46V16.26h17.28v-2H94.46V2.55h19.22v-2H92.22V30.23h21.67Z"/><path class="cls-1" d="M143.58,30.23V.51h-2.15V26.37L120.61.51H118.5V30.23h2.16V3.82L141.9,30.23Z"/><path class="cls-1" d="M151.56.51h-2.24V30.23h2.24Z"/><path class="cls-1" d="M182.25.51h-2.63L169.36,13.63,159.06.51h-2.67l11.55,14.56L156,30.23h2.63l10.69-13.71L180,30.23h2.67l-12-15.16Z"/><path class="cls-1" d="M60.6,30.21,46.55.51H44.4l-14,29.7h2.33L45.43,2.91,53.36,20H39.3l-.89,2h15.9l3.84,8.26Z"/><path class="cls-1" d="M87.26,26.29V14.82H75v2H85.1v8.53a15.63,15.63,0,0,1-9.61,3.4c-8.06,0-12.93-5.73-12.93-13.42v-.08C62.56,8.11,67.69,2,75,2a13.74,13.74,0,0,1,9.7,3.56l1.47-1.65A16,16,0,0,0,75.14,0c-9,0-14.91,7.35-14.91,15.37v.09c0,8.36,5.65,15.28,15.17,15.28A18.33,18.33,0,0,0,87.25,26.3"/><path class="cls-1" d="M18.89,14.24c-7.15-1.44-8.79-3.35-8.79-6.49V7.66c0-3.1,2.93-5.6,7.37-5.6a13.07,13.07,0,0,1,9,3.35L27.9,3.67A15.19,15.19,0,0,0,17.55.06c-5.6,0-9.69,3.4-9.69,7.82V8c0,4.5,2.93,6.92,10.17,8.36,6.85,1.37,8.53,3.18,8.53,6.33v.09c0,3.39-3.1,5.9-7.63,5.9s-7.49-1.41-10.81-4.42L6.65,25.88A17.38,17.38,0,0,0,18.8,30.64c5.8,0,10-3.31,10-8.11v-.09c0-4.33-2.93-6.79-9.91-8.19"/><path class="cls-1" d="M186.19,28.9h-.34v-.45h.34c.18,0,.29.08.29.23S186.37,28.9,186.19,28.9Zm.56-.25c0-.28-.23-.43-.53-.43h-.65v1.37h.27v-.47h.29l.32.47h.33l-.38-.52a.38.38,0,0,0,.24-.15.38.38,0,0,0,.08-.27"/><path class="cls-1" d="M187.34,28.93a1.13,1.13,0,0,1-.08.48,1.06,1.06,0,0,1-.26.41,1.09,1.09,0,0,1-.4.27,1.12,1.12,0,0,1-.48.1,1.15,1.15,0,0,1-.48-.1,1.09,1.09,0,0,1-.4-.27,1.19,1.19,0,0,1-.26-.41,1.31,1.31,0,0,1-.08-.48,1.2,1.2,0,0,1,.36-.86,1.24,1.24,0,0,1,1.33-.26,1.31,1.31,0,0,1,.4.26,1.27,1.27,0,0,1,.26.39,1.25,1.25,0,0,1,.09.46Zm-1.22-1.37a1.37,1.37,0,0,0-1,.4,1.37,1.37,0,0,0-.3,1.48,1.43,1.43,0,0,0,.3.44,1.51,1.51,0,0,0,.45.29,1.31,1.31,0,0,0,.52.11,1.4,1.4,0,0,0,.53-.11,1.51,1.51,0,0,0,.45-.29,1.6,1.6,0,0,0,.29-.44,1.28,1.28,0,0,0,0-1,1.4,1.4,0,0,0-.29-.44,1.51,1.51,0,0,0-.45-.29,1.4,1.4,0,0,0-.53-.11"/></g></g></svg>
</svg>